<mxfile host="app.diagrams.net" agent="Mozilla/5.0 (X11; Linux x86_64; rv:128.0) Gecko/20100101 Firefox/128.0" version="26.0.16" pages="3">
  <diagram name="Sensors" id="z7QYfls0CIEdqmpHnuwo">
    <mxGraphModel dx="1644" dy="1530" grid="1" gridSize="10" guides="1" tooltips="1" connect="1" arrows="1" fold="1" page="1" pageScale="1" pageWidth="850" pageHeight="1100" math="0" shadow="0">
      <root>
        <mxCell id="0" />
        <mxCell id="1" parent="0" />
        <mxCell id="lXedflFvbLRf5bmaXI45-3" value="" style="rounded=1;whiteSpace=wrap;html=1;" parent="1" vertex="1">
          <mxGeometry x="-20" y="-70" width="640" height="520" as="geometry" />
        </mxCell>
        <mxCell id="lXedflFvbLRf5bmaXI45-2" value="" style="rounded=1;whiteSpace=wrap;html=1;" parent="1" vertex="1">
          <mxGeometry x="-30" y="-80" width="630" height="510" as="geometry" />
        </mxCell>
        <mxCell id="lXedflFvbLRf5bmaXI45-1" value="" style="rounded=1;whiteSpace=wrap;html=1;" parent="1" vertex="1">
          <mxGeometry x="-40" y="-90" width="620" height="500" as="geometry" />
        </mxCell>
        <mxCell id="kvE_GCw-waAO9JVOzVsJ-6" style="edgeStyle=orthogonalEdgeStyle;rounded=0;orthogonalLoop=1;jettySize=auto;html=1;" parent="1" source="kvE_GCw-waAO9JVOzVsJ-1" edge="1">
          <mxGeometry relative="1" as="geometry">
            <mxPoint x="420" y="130" as="targetPoint" />
          </mxGeometry>
        </mxCell>
        <mxCell id="QnU8t7fA-HmI-AyYtvUS-12" value="&lt;font style=&quot;font-size: 9px;&quot;&gt;~USED &amp;amp; ~PWM&lt;/font&gt;" style="edgeLabel;html=1;align=center;verticalAlign=middle;resizable=0;points=[];" vertex="1" connectable="0" parent="kvE_GCw-waAO9JVOzVsJ-6">
          <mxGeometry x="-0.1526" y="5" relative="1" as="geometry">
            <mxPoint x="6" y="-10" as="offset" />
          </mxGeometry>
        </mxCell>
        <mxCell id="QnU8t7fA-HmI-AyYtvUS-10" value="" style="edgeStyle=orthogonalEdgeStyle;rounded=0;orthogonalLoop=1;jettySize=auto;html=1;" edge="1" parent="1" source="kvE_GCw-waAO9JVOzVsJ-1" target="kvE_GCw-waAO9JVOzVsJ-8">
          <mxGeometry relative="1" as="geometry" />
        </mxCell>
        <mxCell id="QnU8t7fA-HmI-AyYtvUS-27" style="edgeStyle=orthogonalEdgeStyle;rounded=0;orthogonalLoop=1;jettySize=auto;html=1;entryX=1.017;entryY=0.633;entryDx=0;entryDy=0;curved=1;entryPerimeter=0;" edge="1" parent="1" source="kvE_GCw-waAO9JVOzVsJ-1" target="kvE_GCw-waAO9JVOzVsJ-16">
          <mxGeometry relative="1" as="geometry" />
        </mxCell>
        <mxCell id="QnU8t7fA-HmI-AyYtvUS-28" value="u &amp;amp;p" style="edgeLabel;html=1;align=center;verticalAlign=middle;resizable=0;points=[];" vertex="1" connectable="0" parent="QnU8t7fA-HmI-AyYtvUS-27">
          <mxGeometry x="0.0612" y="1" relative="1" as="geometry">
            <mxPoint as="offset" />
          </mxGeometry>
        </mxCell>
        <mxCell id="kvE_GCw-waAO9JVOzVsJ-1" value="Start at Random" style="rounded=1;whiteSpace=wrap;html=1;" parent="1" vertex="1">
          <mxGeometry x="220" y="100" width="120" height="60" as="geometry" />
        </mxCell>
        <mxCell id="kvE_GCw-waAO9JVOzVsJ-2" value="" style="endArrow=classic;html=1;rounded=0;" parent="1" edge="1">
          <mxGeometry width="50" height="50" relative="1" as="geometry">
            <mxPoint x="270" y="160" as="sourcePoint" />
            <mxPoint x="270" y="230" as="targetPoint" />
          </mxGeometry>
        </mxCell>
        <mxCell id="kvE_GCw-waAO9JVOzVsJ-4" value="USED &amp;amp; ~PWM" style="edgeLabel;html=1;align=center;verticalAlign=middle;resizable=0;points=[];" parent="kvE_GCw-waAO9JVOzVsJ-2" vertex="1" connectable="0">
          <mxGeometry x="-0.2857" y="1" relative="1" as="geometry">
            <mxPoint as="offset" />
          </mxGeometry>
        </mxCell>
        <mxCell id="kvE_GCw-waAO9JVOzVsJ-17" style="edgeStyle=orthogonalEdgeStyle;rounded=0;orthogonalLoop=1;jettySize=auto;html=1;entryX=1;entryY=0.75;entryDx=0;entryDy=0;curved=1;" parent="1" source="kvE_GCw-waAO9JVOzVsJ-3" target="kvE_GCw-waAO9JVOzVsJ-16" edge="1">
          <mxGeometry relative="1" as="geometry" />
        </mxCell>
        <mxCell id="kvE_GCw-waAO9JVOzVsJ-18" value="&lt;font style=&quot;font-size: 9px;&quot;&gt;USED &amp;amp; PWM&lt;/font&gt;" style="edgeLabel;html=1;align=center;verticalAlign=middle;resizable=0;points=[];" parent="kvE_GCw-waAO9JVOzVsJ-17" vertex="1" connectable="0">
          <mxGeometry x="-0.1172" y="3" relative="1" as="geometry">
            <mxPoint x="-17" y="-38" as="offset" />
          </mxGeometry>
        </mxCell>
        <mxCell id="QnU8t7fA-HmI-AyYtvUS-16" style="edgeStyle=orthogonalEdgeStyle;rounded=0;orthogonalLoop=1;jettySize=auto;html=1;entryX=0;entryY=0.75;entryDx=0;entryDy=0;curved=1;" edge="1" parent="1" source="kvE_GCw-waAO9JVOzVsJ-3" target="kvE_GCw-waAO9JVOzVsJ-11">
          <mxGeometry relative="1" as="geometry">
            <Array as="points">
              <mxPoint x="210" y="240" />
              <mxPoint x="210" y="5" />
            </Array>
          </mxGeometry>
        </mxCell>
        <mxCell id="QnU8t7fA-HmI-AyYtvUS-19" value="~U &amp;amp; PWM" style="edgeLabel;html=1;align=center;verticalAlign=middle;resizable=0;points=[];" vertex="1" connectable="0" parent="QnU8t7fA-HmI-AyYtvUS-16">
          <mxGeometry x="0.1937" y="-5" relative="1" as="geometry">
            <mxPoint x="5" as="offset" />
          </mxGeometry>
        </mxCell>
        <mxCell id="kvE_GCw-waAO9JVOzVsJ-3" value="Count up quickly" style="rounded=1;whiteSpace=wrap;html=1;" parent="1" vertex="1">
          <mxGeometry x="220" y="230" width="120" height="60" as="geometry" />
        </mxCell>
        <mxCell id="kvE_GCw-waAO9JVOzVsJ-19" style="edgeStyle=orthogonalEdgeStyle;rounded=0;orthogonalLoop=1;jettySize=auto;html=1;entryX=1;entryY=0;entryDx=0;entryDy=0;curved=1;" parent="1" source="kvE_GCw-waAO9JVOzVsJ-8" target="kvE_GCw-waAO9JVOzVsJ-11" edge="1">
          <mxGeometry relative="1" as="geometry">
            <Array as="points">
              <mxPoint x="520" y="30" />
              <mxPoint x="480" y="30" />
              <mxPoint x="480" y="-40" />
            </Array>
          </mxGeometry>
        </mxCell>
        <mxCell id="kvE_GCw-waAO9JVOzVsJ-20" value="PWM &amp;amp; ~Used" style="edgeLabel;html=1;align=center;verticalAlign=middle;resizable=0;points=[];" parent="kvE_GCw-waAO9JVOzVsJ-19" vertex="1" connectable="0">
          <mxGeometry x="-0.1159" y="-2" relative="1" as="geometry">
            <mxPoint as="offset" />
          </mxGeometry>
        </mxCell>
        <mxCell id="QnU8t7fA-HmI-AyYtvUS-14" style="edgeStyle=orthogonalEdgeStyle;rounded=0;orthogonalLoop=1;jettySize=auto;html=1;entryX=0;entryY=0.25;entryDx=0;entryDy=0;curved=1;" edge="1" parent="1" source="kvE_GCw-waAO9JVOzVsJ-8" target="kvE_GCw-waAO9JVOzVsJ-16">
          <mxGeometry relative="1" as="geometry">
            <Array as="points">
              <mxPoint x="530" y="330" />
              <mxPoint x="20" y="330" />
              <mxPoint x="20" y="115" />
            </Array>
          </mxGeometry>
        </mxCell>
        <mxCell id="QnU8t7fA-HmI-AyYtvUS-15" value="USED &amp;amp; PWM" style="edgeLabel;html=1;align=center;verticalAlign=middle;resizable=0;points=[];" vertex="1" connectable="0" parent="QnU8t7fA-HmI-AyYtvUS-14">
          <mxGeometry x="0.0673" y="-3" relative="1" as="geometry">
            <mxPoint as="offset" />
          </mxGeometry>
        </mxCell>
        <mxCell id="kvE_GCw-waAO9JVOzVsJ-8" value="Count down slowly to 30" style="rounded=1;whiteSpace=wrap;html=1;" parent="1" vertex="1">
          <mxGeometry x="420" y="100" width="120" height="60" as="geometry" />
        </mxCell>
        <mxCell id="QnU8t7fA-HmI-AyYtvUS-22" style="edgeStyle=orthogonalEdgeStyle;rounded=0;orthogonalLoop=1;jettySize=auto;html=1;entryX=1;entryY=0.75;entryDx=0;entryDy=0;curved=1;" edge="1" parent="1" source="kvE_GCw-waAO9JVOzVsJ-11" target="kvE_GCw-waAO9JVOzVsJ-3">
          <mxGeometry relative="1" as="geometry">
            <Array as="points">
              <mxPoint x="390" y="-10" />
              <mxPoint x="390" y="275" />
            </Array>
          </mxGeometry>
        </mxCell>
        <mxCell id="QnU8t7fA-HmI-AyYtvUS-23" value="Used &amp;amp; ~PWM" style="edgeLabel;html=1;align=center;verticalAlign=middle;resizable=0;points=[];" vertex="1" connectable="0" parent="QnU8t7fA-HmI-AyYtvUS-22">
          <mxGeometry x="-0.5481" y="-3" relative="1" as="geometry">
            <mxPoint as="offset" />
          </mxGeometry>
        </mxCell>
        <mxCell id="QnU8t7fA-HmI-AyYtvUS-24" style="edgeStyle=orthogonalEdgeStyle;rounded=0;orthogonalLoop=1;jettySize=auto;html=1;entryX=0.25;entryY=0;entryDx=0;entryDy=0;curved=1;" edge="1" parent="1" source="kvE_GCw-waAO9JVOzVsJ-11" target="kvE_GCw-waAO9JVOzVsJ-8">
          <mxGeometry relative="1" as="geometry" />
        </mxCell>
        <mxCell id="QnU8t7fA-HmI-AyYtvUS-25" value="~Used &amp;amp; ~PWM" style="edgeLabel;html=1;align=center;verticalAlign=middle;resizable=0;points=[];" vertex="1" connectable="0" parent="QnU8t7fA-HmI-AyYtvUS-24">
          <mxGeometry x="-0.5333" y="-15" relative="1" as="geometry">
            <mxPoint as="offset" />
          </mxGeometry>
        </mxCell>
        <mxCell id="kvE_GCw-waAO9JVOzVsJ-11" value="Count down to 30 more quickly" style="rounded=1;whiteSpace=wrap;html=1;" parent="1" vertex="1">
          <mxGeometry x="260" y="-40" width="120" height="60" as="geometry" />
        </mxCell>
        <mxCell id="kvE_GCw-waAO9JVOzVsJ-12" style="edgeStyle=orthogonalEdgeStyle;rounded=0;orthogonalLoop=1;jettySize=auto;html=1;entryX=0.5;entryY=1;entryDx=0;entryDy=0;curved=1;" parent="1" source="kvE_GCw-waAO9JVOzVsJ-1" target="kvE_GCw-waAO9JVOzVsJ-11" edge="1">
          <mxGeometry relative="1" as="geometry" />
        </mxCell>
        <mxCell id="kvE_GCw-waAO9JVOzVsJ-13" value="PWM &amp;amp; ~USED " style="edgeLabel;html=1;align=center;verticalAlign=middle;resizable=0;points=[];" parent="kvE_GCw-waAO9JVOzVsJ-12" vertex="1" connectable="0">
          <mxGeometry x="-0.1224" y="-4" relative="1" as="geometry">
            <mxPoint as="offset" />
          </mxGeometry>
        </mxCell>
        <mxCell id="kvE_GCw-waAO9JVOzVsJ-14" style="edgeStyle=orthogonalEdgeStyle;rounded=0;orthogonalLoop=1;jettySize=auto;html=1;curved=1;entryX=0.917;entryY=0;entryDx=0;entryDy=0;entryPerimeter=0;" parent="1" source="kvE_GCw-waAO9JVOzVsJ-8" target="kvE_GCw-waAO9JVOzVsJ-3" edge="1">
          <mxGeometry relative="1" as="geometry">
            <mxPoint x="330" y="220" as="targetPoint" />
            <Array as="points">
              <mxPoint x="330" y="160" />
            </Array>
          </mxGeometry>
        </mxCell>
        <mxCell id="kvE_GCw-waAO9JVOzVsJ-15" value="USED &amp;amp; ~PWM" style="edgeLabel;html=1;align=center;verticalAlign=middle;resizable=0;points=[];" parent="kvE_GCw-waAO9JVOzVsJ-14" vertex="1" connectable="0">
          <mxGeometry x="-0.3922" y="2" relative="1" as="geometry">
            <mxPoint x="-11" y="18" as="offset" />
          </mxGeometry>
        </mxCell>
        <mxCell id="QnU8t7fA-HmI-AyYtvUS-3" style="edgeStyle=orthogonalEdgeStyle;rounded=0;orthogonalLoop=1;jettySize=auto;html=1;entryX=0;entryY=0.75;entryDx=0;entryDy=0;curved=1;" edge="1" parent="1" source="kvE_GCw-waAO9JVOzVsJ-16" target="kvE_GCw-waAO9JVOzVsJ-3">
          <mxGeometry relative="1" as="geometry">
            <Array as="points">
              <mxPoint x="90" y="275" />
            </Array>
          </mxGeometry>
        </mxCell>
        <mxCell id="QnU8t7fA-HmI-AyYtvUS-4" value="~PWM &amp;amp; USED" style="edgeLabel;html=1;align=center;verticalAlign=middle;resizable=0;points=[];" vertex="1" connectable="0" parent="QnU8t7fA-HmI-AyYtvUS-3">
          <mxGeometry x="-0.5837" y="9" relative="1" as="geometry">
            <mxPoint as="offset" />
          </mxGeometry>
        </mxCell>
        <mxCell id="kvE_GCw-waAO9JVOzVsJ-16" value="Count up more slowly" style="rounded=1;whiteSpace=wrap;html=1;" parent="1" vertex="1">
          <mxGeometry x="40" y="100" width="120" height="60" as="geometry" />
        </mxCell>
        <mxCell id="kvE_GCw-waAO9JVOzVsJ-21" style="edgeStyle=orthogonalEdgeStyle;rounded=0;orthogonalLoop=1;jettySize=auto;html=1;entryX=0.342;entryY=0.983;entryDx=0;entryDy=0;entryPerimeter=0;curved=1;" parent="1" source="kvE_GCw-waAO9JVOzVsJ-3" target="kvE_GCw-waAO9JVOzVsJ-8" edge="1">
          <mxGeometry relative="1" as="geometry" />
        </mxCell>
        <mxCell id="kvE_GCw-waAO9JVOzVsJ-22" value="~Used &amp;amp; ~PWM" style="edgeLabel;html=1;align=center;verticalAlign=middle;resizable=0;points=[];" parent="kvE_GCw-waAO9JVOzVsJ-21" vertex="1" connectable="0">
          <mxGeometry x="0.4731" y="29" relative="1" as="geometry">
            <mxPoint as="offset" />
          </mxGeometry>
        </mxCell>
        <mxCell id="Kdn3re7TsG2npQfGSAUo-1" value="3 Sensors " style="rounded=1;whiteSpace=wrap;html=1;" parent="1" vertex="1">
          <mxGeometry x="185" y="-160" width="120" height="60" as="geometry" />
        </mxCell>
        <mxCell id="QnU8t7fA-HmI-AyYtvUS-1" value="" style="curved=1;endArrow=classic;html=1;rounded=0;entryX=0.842;entryY=0.017;entryDx=0;entryDy=0;entryPerimeter=0;" edge="1" parent="1" target="kvE_GCw-waAO9JVOzVsJ-16">
          <mxGeometry width="50" height="50" relative="1" as="geometry">
            <mxPoint x="50" y="100" as="sourcePoint" />
            <mxPoint x="100" y="50" as="targetPoint" />
            <Array as="points">
              <mxPoint x="40" y="80" />
              <mxPoint x="50" y="50" />
            </Array>
          </mxGeometry>
        </mxCell>
        <mxCell id="QnU8t7fA-HmI-AyYtvUS-2" value="Used &amp;amp; PWM" style="edgeLabel;html=1;align=center;verticalAlign=middle;resizable=0;points=[];" vertex="1" connectable="0" parent="QnU8t7fA-HmI-AyYtvUS-1">
          <mxGeometry x="0.0408" y="-3" relative="1" as="geometry">
            <mxPoint as="offset" />
          </mxGeometry>
        </mxCell>
        <mxCell id="QnU8t7fA-HmI-AyYtvUS-5" style="edgeStyle=orthogonalEdgeStyle;rounded=0;orthogonalLoop=1;jettySize=auto;html=1;entryX=0;entryY=0.5;entryDx=0;entryDy=0;curved=1;" edge="1" parent="1" source="kvE_GCw-waAO9JVOzVsJ-16" target="kvE_GCw-waAO9JVOzVsJ-11">
          <mxGeometry relative="1" as="geometry">
            <Array as="points">
              <mxPoint x="190" y="130" />
              <mxPoint x="190" y="10" />
              <mxPoint x="240" y="10" />
              <mxPoint x="240" y="-10" />
            </Array>
          </mxGeometry>
        </mxCell>
        <mxCell id="QnU8t7fA-HmI-AyYtvUS-6" value="~USED &amp;amp; PWM" style="edgeLabel;html=1;align=center;verticalAlign=middle;resizable=0;points=[];" vertex="1" connectable="0" parent="QnU8t7fA-HmI-AyYtvUS-5">
          <mxGeometry x="-0.071" y="-7" relative="1" as="geometry">
            <mxPoint x="-27" y="-9" as="offset" />
          </mxGeometry>
        </mxCell>
        <mxCell id="QnU8t7fA-HmI-AyYtvUS-7" style="edgeStyle=orthogonalEdgeStyle;rounded=0;orthogonalLoop=1;jettySize=auto;html=1;entryX=0.858;entryY=0.983;entryDx=0;entryDy=0;entryPerimeter=0;curved=1;" edge="1" parent="1" source="kvE_GCw-waAO9JVOzVsJ-16" target="kvE_GCw-waAO9JVOzVsJ-8">
          <mxGeometry relative="1" as="geometry">
            <Array as="points">
              <mxPoint x="30" y="130" />
              <mxPoint x="30" y="310" />
              <mxPoint x="523" y="310" />
            </Array>
          </mxGeometry>
        </mxCell>
        <mxCell id="QnU8t7fA-HmI-AyYtvUS-8" value="~USED &amp;amp; ~PWM" style="edgeLabel;html=1;align=center;verticalAlign=middle;resizable=0;points=[];" vertex="1" connectable="0" parent="QnU8t7fA-HmI-AyYtvUS-7">
          <mxGeometry x="-0.1991" y="9" relative="1" as="geometry">
            <mxPoint as="offset" />
          </mxGeometry>
        </mxCell>
        <mxCell id="QnU8t7fA-HmI-AyYtvUS-20" style="edgeStyle=orthogonalEdgeStyle;rounded=0;orthogonalLoop=1;jettySize=auto;html=1;entryX=0.567;entryY=0.083;entryDx=0;entryDy=0;entryPerimeter=0;curved=1;exitX=0;exitY=0.25;exitDx=0;exitDy=0;" edge="1" parent="1" source="kvE_GCw-waAO9JVOzVsJ-11" target="kvE_GCw-waAO9JVOzVsJ-16">
          <mxGeometry relative="1" as="geometry" />
        </mxCell>
        <mxCell id="QnU8t7fA-HmI-AyYtvUS-21" value="U &amp;amp; PWM" style="edgeLabel;html=1;align=center;verticalAlign=middle;resizable=0;points=[];" vertex="1" connectable="0" parent="QnU8t7fA-HmI-AyYtvUS-20">
          <mxGeometry x="-0.1772" y="33" relative="1" as="geometry">
            <mxPoint as="offset" />
          </mxGeometry>
        </mxCell>
        <mxCell id="QnU8t7fA-HmI-AyYtvUS-26" value="&lt;div&gt;state_next = state;&lt;/div&gt;&lt;div&gt;if ( u &amp;amp; ~ pwm)&lt;/div&gt;&lt;div&gt;state_next = c_u_q;&lt;/div&gt;&lt;div&gt;else if (~ u &amp;amp; ~ pwm)&lt;/div&gt;&lt;div&gt;state_next = c_d_s&lt;/div&gt;&lt;div&gt;else if (~u &amp;amp; pwm)&lt;/div&gt;&lt;div&gt;state_next = c_d_q&lt;/div&gt;&lt;div&gt;else if(u &amp;amp; p)&lt;/div&gt;&lt;div&gt;state_next = c_u_s&lt;br&gt;&lt;/div&gt;&lt;div&gt;&lt;br&gt;&lt;/div&gt;" style="rounded=1;whiteSpace=wrap;html=1;" vertex="1" parent="1">
          <mxGeometry x="660" y="-90" width="340" height="360" as="geometry" />
        </mxCell>
      </root>
    </mxGraphModel>
  </diagram>
  <diagram id="OFvr3_Ze6BXcCYAkeyO0" name="Central Processing">
    <mxGraphModel dx="1434" dy="726" grid="1" gridSize="10" guides="1" tooltips="1" connect="1" arrows="1" fold="1" page="1" pageScale="1" pageWidth="850" pageHeight="1100" math="0" shadow="0">
      <root>
        <mxCell id="0" />
        <mxCell id="1" parent="0" />
        <mxCell id="e35c7TaC6XhNd6nNbpjI-1" value="Reset " style="rounded=1;whiteSpace=wrap;html=1;" vertex="1" parent="1">
          <mxGeometry x="370" y="300" width="120" height="60" as="geometry" />
        </mxCell>
        <mxCell id="e35c7TaC6XhNd6nNbpjI-2" value="Central Processing" style="text;html=1;align=center;verticalAlign=middle;whiteSpace=wrap;rounded=0;" vertex="1" parent="1">
          <mxGeometry x="350" y="90" width="60" height="30" as="geometry" />
        </mxCell>
        <mxCell id="OLV7tPsO2JYTpCUl6rM--1" value="Reset&lt;br&gt;&lt;div&gt;Check 1st Sensor, use if less than 75&lt;/div&gt;&lt;div&gt;else&lt;br&gt;&lt;/div&gt;&lt;div&gt;Check 2nd Sensor, use if less than 75&lt;/div&gt;&lt;div&gt;else&amp;nbsp;&lt;/div&gt;&lt;div&gt;Check 3rd Sensor, use if less than 75&amp;nbsp;&lt;/div&gt;&lt;div&gt;else&amp;nbsp;&lt;/div&gt;&lt;div&gt;Wait &lt;br&gt;&lt;/div&gt;" style="text;html=1;align=center;verticalAlign=middle;resizable=0;points=[];autosize=1;strokeColor=none;fillColor=none;" vertex="1" parent="1">
          <mxGeometry x="590" y="160" width="230" height="130" as="geometry" />
        </mxCell>
        <mxCell id="OLV7tPsO2JYTpCUl6rM--2" value="&lt;div&gt;if Sensor &amp;gt; 75, check others, &lt;br&gt;&lt;/div&gt;&lt;div&gt;switch to the lowest temperature&lt;br&gt;&lt;/div&gt;&lt;div&gt;&lt;br&gt;&lt;/div&gt;&lt;div&gt;Else&lt;br&gt;Stay in the core&lt;br&gt;&lt;/div&gt;" style="text;html=1;align=center;verticalAlign=middle;resizable=0;points=[];autosize=1;strokeColor=none;fillColor=none;" vertex="1" parent="1">
          <mxGeometry x="100" y="165" width="190" height="90" as="geometry" />
        </mxCell>
      </root>
    </mxGraphModel>
  </diagram>
  <diagram id="_SnjAS1dz1_-d7zM6IFp" name="Cooling System">
    <mxGraphModel dx="989" dy="501" grid="1" gridSize="10" guides="1" tooltips="1" connect="1" arrows="1" fold="1" page="1" pageScale="1" pageWidth="850" pageHeight="1100" math="0" shadow="0">
      <root>
        <mxCell id="0" />
        <mxCell id="1" parent="0" />
        <mxCell id="hApYpysLvm_JZzYVFy6F-1" value="" style="rounded=1;whiteSpace=wrap;html=1;" vertex="1" parent="1">
          <mxGeometry x="260" y="30" width="150" height="30" as="geometry" />
        </mxCell>
        <mxCell id="8JjCi7ErUcnYg4hCcZGx-4" value="" style="rounded=1;whiteSpace=wrap;html=1;" vertex="1" parent="1">
          <mxGeometry x="230" y="70" width="210" height="50" as="geometry" />
        </mxCell>
        <mxCell id="8JjCi7ErUcnYg4hCcZGx-3" value="" style="rounded=1;whiteSpace=wrap;html=1;" vertex="1" parent="1">
          <mxGeometry x="220" y="80" width="210" height="53" as="geometry" />
        </mxCell>
        <mxCell id="8JjCi7ErUcnYg4hCcZGx-2" value="" style="rounded=1;whiteSpace=wrap;html=1;" vertex="1" parent="1">
          <mxGeometry x="210" y="93" width="210" height="57" as="geometry" />
        </mxCell>
        <mxCell id="wEJXauFWFnn9xlXOYT_c-1" value="3 Cooling System Fans" style="text;html=1;align=center;verticalAlign=middle;resizable=0;points=[];autosize=1;strokeColor=none;fillColor=none;" vertex="1" parent="1">
          <mxGeometry x="260" y="30" width="150" height="30" as="geometry" />
        </mxCell>
        <mxCell id="8JjCi7ErUcnYg4hCcZGx-1" value="&lt;div&gt;If Sensor&amp;nbsp; &amp;gt; 70, increase speed&lt;/div&gt;&lt;div&gt;else if Sensor &amp;lt; 50, decrease speed&lt;br&gt;&lt;/div&gt;" style="text;html=1;align=center;verticalAlign=middle;resizable=0;points=[];autosize=1;strokeColor=none;fillColor=none;" vertex="1" parent="1">
          <mxGeometry x="215" y="93" width="210" height="40" as="geometry" />
        </mxCell>
      </root>
    </mxGraphModel>
  </diagram>
</mxfile>
